<svg id="Слой_1" data-name="Слой 1" xmlns="http://www.w3.org/2000/svg" viewBox="0 0 210 72.11"><defs><style>.cls-1{fill:#fff;}.cls-2{fill:#f15a24;}</style></defs><path class="cls-1" d="M15.93,38.28l.05,0a.08.08,0,0,0,0,0,.08.08,0,0,0,0,0v-.06a.57.57,0,0,1,0-.26,2.19,2.19,0,0,1,1,1,6.06,6.06,0,0,1,.52,1.5A8.94,8.94,0,0,1,17.75,42v1.38c-.13.5-.28,1-.44,1.49a2.71,2.71,0,0,1-.67,1.19,3.62,3.62,0,0,0,.56.67q.32.3.6.63a3.38,3.38,0,0,1,.5.75,2.78,2.78,0,0,1,.19,1.07c0,.07,0,.1.06.1s.07-.08.07-.23a1.32,1.32,0,0,1,.33.51,4,4,0,0,1,.19.68q.08.34.12.69a4.52,4.52,0,0,0,.11.53,8.93,8.93,0,0,1-.56,3.36A10.67,10.67,0,0,1,17,57.68c-.16,0-.27,0-.31.11a2.09,2.09,0,0,0-.17.28.48.48,0,0,0-.11-.09l-.14,0a.54.54,0,0,0-.22.05.79.79,0,0,1-.26.08v.06l0,0s0,0,.05,0h.28a5.46,5.46,0,0,1-1.56.88,6.3,6.3,0,0,1-2,.34c-.12,0-.18,0-.18-.06l.06-.2c-.1,0-.16,0-.18,0a.39.39,0,0,1-.08.1.37.37,0,0,1-.15.08,1,1,0,0,1-.35,0H9.63c-.06,0-.09,0-.11-.09v-.2a.61.61,0,0,0,0-.19.09.09,0,0,0,0-.06l-.07,0c-.1,0-.14.05-.13.15s0,.22,0,.35a1.22,1.22,0,0,1-.35,0l-.81,0H6.74c-.12,0-.18-.07-.18-.22s0-.22-.12-.22-.15.08-.11.22,0,.22-.14.22S5.8,59.3,5.8,59a2.81,2.81,0,0,1,0-.41,3,3,0,0,0,0-.42V58a.24.24,0,0,1,0-.12.86.86,0,0,0,.33.2s.08,0,.11-.08a1.5,1.5,0,0,1,.19-.25c0-.25-.14-.35-.31-.33s-.28,0-.32-.07V39.87c0-.24.08-.37.24-.4a1.83,1.83,0,0,1-.22-.72c0-.27,0-.57,0-1,0-.11,0-.16.12-.16a.67.67,0,0,0,.24,0,1.81,1.81,0,0,1-.39-1.29,3.68,3.68,0,0,1,0-.47c.2.09.3.21.3.34a.67.67,0,0,1-.07.31.72.72,0,0,0-.08.32.44.44,0,0,0,.1.26,1.15,1.15,0,0,0,.11-.17l.19-.35a3.11,3.11,0,0,0,.15-.33l.06-.14a.16.16,0,0,1,0-.1.12.12,0,0,1,0-.07s.06-.09.06-.2H11c.45,0,.9,0,1.34.09a6,6,0,0,1,.94.16c.23.06.34.17.34.3a0,0,0,0,1,0,0v.08a.47.47,0,0,1,.15-.13.44.44,0,0,1,.19-.07,1.57,1.57,0,0,1,.89.42c.36.27.7.51,1,.71a.44.44,0,0,0,0,.2.75.75,0,0,0,.07.36A.75.75,0,0,1,15.93,38.28Zm-9.78.64c0-.07,0-.1-.05-.1s-.06,0-.06.1,0,.1.06.1S6.15,39,6.15,38.92Zm7.29,1.89c-.08-.05-.11-.14-.09-.3s0-.23-.15-.23l0,0H13.1a1.07,1.07,0,0,1-.56-.23,1.21,1.21,0,0,0-.69-.23l-.51.07-.44,0H9.61v4.61a2.47,2.47,0,0,1,.6.08,2,2,0,0,0,.59.09l.3,0a1.35,1.35,0,0,0,.66.31l.83.08a1.87,1.87,0,0,0,.39-.22,1.67,1.67,0,0,0,.34-.31.19.19,0,0,0-.1-.12.29.29,0,0,0-.16,0c-.13,0-.2,0-.23-.13a.41.41,0,0,0,.16,0,.39.39,0,0,0,.14-.08,1,1,0,0,0,.15-.2l.14-.2a.42.42,0,0,1,.12-.08.36.36,0,0,1,.14,0h.16v-.39H14a.31.31,0,0,0,.19,0,.36.36,0,0,0,.11-.16.73.73,0,0,1,.19-.37.41.41,0,0,0-.08-.13.29.29,0,0,0-.14-.08.47.47,0,0,1-.27-.19v-.21a1.31,1.31,0,0,0,0-.28,2.57,2.57,0,0,0-.06-.68,1.11,1.11,0,0,0-.33-.62v.21l0,0,0,0a0,0,0,0,1-.05,0Zm1.36,9c0,.09,0,.13-.06.13s-.14-.12-.19-.35a2.7,2.7,0,0,1-.08-.41,1.57,1.57,0,0,1,.09-.43.5.5,0,0,0-.21-.17.47.47,0,0,0-.17,0,.4.4,0,0,1-.15,0,.52.52,0,0,1-.19-.17.42.42,0,0,1-.17.18.37.37,0,0,1-.23.05.91.91,0,0,1-.61-.23.21.21,0,0,1,.05-.15.26.26,0,0,0,.07-.15.92.92,0,0,1-.33,0h-.49a1.21,1.21,0,0,0-.67.3.19.19,0,0,1,0-.08.18.18,0,0,1,0-.07.18.18,0,0,0,.05-.07.19.19,0,0,0,0-.08.47.47,0,0,0-.17,0,.38.38,0,0,0-.14.11c0,.09-.11.18-.16.28a2.2,2.2,0,0,1-.18.28.4.4,0,0,1-.15.1.25.25,0,0,1-.17,0,.25.25,0,0,1-.08-.1.28.28,0,0,1,0-.13.14.14,0,0,0-.16-.16,1.56,1.56,0,0,0-.28.16,1.53,1.53,0,0,1-.46.23.77.77,0,0,1,0,.3,1.61,1.61,0,0,1-.08.57,1.17,1.17,0,0,0-.1.41.17.17,0,0,0,0,.1c0-.07,0-.1.07-.1s0,.07,0,.22v4.88h1.25a.28.28,0,0,0-.09.19.34.34,0,0,0,.11.25.31.31,0,0,0,.11.09.32.32,0,0,0,.14,0,.19.19,0,0,0,.13-.05.31.31,0,0,0,.09-.11.67.67,0,0,1-.28-.06c-.06,0-.09-.11-.09-.24s.09-.1.26-.1h.35a.32.32,0,0,1,.09.23.29.29,0,0,1,0,.13v.13c0,.11.11.17.34.17.05,0,.08,0,.08-.1a.38.38,0,0,0,0-.15.4.4,0,0,1,0-.15.13.13,0,0,1,0-.08l.06-.06a4.36,4.36,0,0,0,2.48-1,3.77,3.77,0,0,0,1-2.74c.16,0,.25-.09.25-.34v0s0,0,0,0l0,0h0a.2.2,0,0,0-.11,0,.18.18,0,0,0-.09.08.4.4,0,0,1-.13.16,1.79,1.79,0,0,0-.31-1,1.79,1.79,0,0,1-.36-.68Zm.61,1.09q.3,0,.3-.33a.65.65,0,0,0-.1-.36.34.34,0,0,0-.12-.12.34.34,0,0,0-.17,0h-.11a.46.46,0,0,0,0,.19c0,.24.08.37.24.4a1,1,0,0,0,.05-.16.1.1,0,0,1,.1-.11.42.42,0,0,1-.07.27.38.38,0,0,0-.08.29Zm3.34-1.36s0-.06-.06-.06-.06,0-.06.06,0,.11.06.11.06,0,.06-.09ZM9.26,54,9.14,54l-.09.17h0l.1-.1A.29.29,0,0,0,9.26,54Zm3.34,1.69c.08.09.14.13.18.13h.05l0,0,0,0v-.05c0-.09,0-.13-.12-.13s-.1,0-.19.14ZM6.44,56.88a.88.88,0,0,0,0-.23,1.21,1.21,0,0,0-.08-.46c-.07-.13-.14-.2-.22-.2H6.07l-.05,0s.06.05.06.14v.39c0,.22.08.34.24.34h0A.1.1,0,0,1,6.44,56.88Zm5.43-8.62a1.27,1.27,0,0,1,.28.06c.14,0,.21.11.21.17s0,0,0,0-.09,0-.09-.07v-.07l-.17.07c-.09,0-.14.09-.14.13l.07.06a.4.4,0,0,1-.1-.12.6.6,0,0,1-.05-.24s0,0,0,0Z" transform="translate(-5.79 -4.95)"/><path class="cls-1" d="M24.79,38.92c0-.07,0-.11.09-.11a.2.2,0,0,0,.15,0c0,.07,0,.1-.09.1A.26.26,0,0,0,24.79,38.92Zm.85,17.24c-.17,0-.27,0-.3-.07A.42.42,0,0,0,25,56a.49.49,0,0,1,.18-.14.43.43,0,0,1,.22-.06c.14,0,.21.11.21.33Zm-.48.43a.64.64,0,0,1-.37.13V56a1.71,1.71,0,0,0,.26.21.5.5,0,0,1,.11.35Zm4.3,2.82v0l0,0s0,0,0,0h0a.28.28,0,0,0,.15,0c0,.07,0,.11-.09.11l-.16,0ZM25.39,37.28c.09,0,.13-.05.13-.1a.31.31,0,0,0-.08-.15L25.38,37a.36.36,0,0,1,0-.1c0-.06.05-.1.16-.1a.3.3,0,0,1,.2.06l.16.07s.06,0,.06-.06a.59.59,0,0,0,0-.13.28.28,0,0,1,0-.2c.14,0,.22,0,.22-.06v-.11a.17.17,0,0,1,0-.1c0-.09.1-.13.3-.13s.21.06.21.17a0,0,0,0,1,0,.05v0a0,0,0,0,0,0,0c0,.09,0,.14.09.14a.66.66,0,0,0,.19-.09l.33-.16.32-.15a.62.62,0,0,1,.19-.07h0a.08.08,0,0,0-.09-.09,3.08,3.08,0,0,1,.72-.15h1.17a5.36,5.36,0,0,0,.7-.08.43.43,0,0,1,0,.16v.2c0,.14,0,.2.09.2s.15-.07.15-.22,0-.2.07-.2a.32.32,0,0,1,.19.07.32.32,0,0,0,.17.09q.09,0,.09-.3c.25,0,.36.15.36.43.15-.05.22-.13.22-.23s0-.06-.09-.06a.81.81,0,0,1,.43-.11,2.19,2.19,0,0,1,.67.11,3.26,3.26,0,0,0,.69.09,1.79,1.79,0,0,0,.46-.09.75.75,0,0,1,.08.18.64.64,0,0,1,0,.24c.06,0,.09,0,.09-.13a.16.16,0,0,0,0-.09.24.24,0,0,0-.06-.08,3.53,3.53,0,0,1,1.48-.26h1.79a3.11,3.11,0,0,0,.43,0v4.18A2.13,2.13,0,0,1,37,40a4.74,4.74,0,0,1-.84,0,4,4,0,0,1-.6,0,1.37,1.37,0,0,1-.49-.13,2.37,2.37,0,0,0-.61.27,1.17,1.17,0,0,1-.52.19h0l0,0a.3.3,0,0,0-.16.17,5.85,5.85,0,0,0-.28.56l-.05.12s-.07,0-.08-.1a.6.6,0,0,0-.07-.2c-.14.07-.21.13-.21.17a.42.42,0,0,0,.11.18.46.46,0,0,1,.1.32.72.72,0,0,0-.14.26.61.61,0,0,0,0,.3.64.64,0,0,1-.21.57.85.85,0,0,1,.11.26,1.57,1.57,0,0,1,0,.43c0,.25-.09.37-.27.37,0,.06,0,.1.09.1a.33.33,0,0,1,.15,0v4.31c0,.17-.09.33-.13.47a1,1,0,0,0-.09.42.91.91,0,0,0,.1.33h-.24c0,.09.07.14.13.14h.18c0,.09-.11.13-.27.13h-.21a3.29,3.29,0,0,1,.12.61.33.33,0,0,0,.11.25.36.36,0,0,0,.25.11l-.09.16a.21.21,0,0,0,0,.13.45.45,0,0,1,0,.23.21.21,0,0,1-.1,0,.22.22,0,0,1-.07-.09.32.32,0,0,0-.08-.09.21.21,0,0,0-.11,0,.32.32,0,0,0,0,.16.38.38,0,0,0,0,.1.3.3,0,0,0,0,.08s0,.05.07.06a.16.16,0,0,0,.09,0c.13,0,.19.07.19.14s-.06.2-.18.2-.18.05-.18.16.07.13.13.13h.23a3.09,3.09,0,0,0,0,.43v.28a1,1,0,0,1,0,.25,1.09,1.09,0,0,1-.08.47.53.53,0,0,1-.16.2.7.7,0,0,1-.24.13,2.31,2.31,0,0,1,.1.28.27.27,0,0,0,.09.12.22.22,0,0,0,.14,0,.37.37,0,0,0,.15,0,4,4,0,0,1,0,.49c0,.14-.14.2-.33.2a.58.58,0,0,0,.29.22c.13,0,.2.13.2.31a1.29,1.29,0,0,0,.48.06h.48c.41,0,.83,0,1.27,0a12.46,12.46,0,0,1,1.37-.05h.44a2.73,2.73,0,0,1,.41,0,16.79,16.79,0,0,0-.1,2.24,6.32,6.32,0,0,1-.17,1.89h-.46c-.2,0-.3,0-.3-.1a.25.25,0,0,1,0-.12.41.41,0,0,1,.07-.11l.06-.09a.41.41,0,0,0,0-.11c0-.11,0-.16-.13-.16h-.21c-.12,0-.18.05-.18.16a1.5,1.5,0,0,0,0,.3v.2h-.4a4.68,4.68,0,0,0-.64,0l-.63,0a1.85,1.85,0,0,1-.57-.06.61.61,0,0,1-.36-.23.71.71,0,0,1-.36.22,2.72,2.72,0,0,1-.49,0h-.27c-.08,0-.12-.08-.12-.18a.36.36,0,0,1,.06-.2.66.66,0,0,0,.06-.27,1.29,1.29,0,0,0-.39,0,.85.85,0,0,1-.22,0,.64.64,0,0,1-.27-.07c-.06,0-.09.08-.09.1s.08.16.24.21a.32.32,0,0,1,.17.1.32.32,0,0,1,.07.19v0l0,0,0,0h-.14a.25.25,0,0,1-.15,0,.41.41,0,0,1-.13-.1c0-.09-.1-.14-.15-.14s-.09.08-.15.24l-.08,0a.16.16,0,0,1,0-.09c0-.08.08-.13.23-.13-.05-.31-.17-.46-.36-.46a.8.8,0,0,0-.3.06l-.31.14v-.27a.7.7,0,0,1-.17.13.59.59,0,0,1-.22.05c-.16,0-.24.11-.24.35a1.23,1.23,0,0,0-.43-.1.45.45,0,0,0-.19,0,.47.47,0,0,1-.26,0c-.14,0-.23,0-.26-.16a.37.37,0,0,0-.07-.14.31.31,0,0,0-.13-.1.55.55,0,0,1-.2.17.72.72,0,0,1-.25.07.2.2,0,0,1-.11,0l-.09-.09a.18.18,0,0,0-.07-.08.21.21,0,0,0-.1,0,.5.5,0,0,0-.27.05.52.52,0,0,0-.2.19,3.19,3.19,0,0,1-.32.43c-.06,0-.09,0-.09-.07s.08-.15.21-.2c0-.07-.06-.1-.09-.1s-.09.06-.17.18-.14.19-.22.19H25.8a.48.48,0,0,1-.31-.08q-.12-.09-.12-.42c0-.15.05-.23.13-.23s.12.06.12.17a.38.38,0,0,1,0,.21,1.42,1.42,0,0,0-.08.18q.33,0,.33-.15c0-.1.05-.14.15-.14s.15.06.14.16,0,.17.14.17.12,0,.12-.1-.09-.22-.26-.38l-.56-.57a6,6,0,0,1-.57-.56.91.91,0,0,1-.26-.56.43.43,0,0,1,.29.06.5.5,0,0,1,.08.34.5.5,0,0,0,.06-.24v-.23a.41.41,0,0,1,0-.19.47.47,0,0,1,.14-.14c0-.07,0-.11-.06-.11s-.09,0-.12.12-.07.12-.1.12v-.07a.64.64,0,0,1,.11-.27c.08-.13.15-.18.23-.18s.07,0,.09.12a2.4,2.4,0,0,0,.48-.62,3.27,3.27,0,0,1,.43-.62.17.17,0,0,1,.19.14.74.74,0,0,1,0,.21.67.67,0,0,0,0,.2c0,.06.11.1.24.12a.13.13,0,0,0,.13-.14.44.44,0,0,0-.06-.16.48.48,0,0,1-.07-.2c0-.11.08-.17.22-.17a.69.69,0,0,1,.24.05l.15.06c.07,0,.11-.08.13-.24a.2.2,0,0,1,.09,0,.19.19,0,0,1,0,.1v.26c.06,0,.1,0,.11-.12s.06-.16.08-.24a.77.77,0,0,1,.14-.21.29.29,0,0,1,.14-.08.3.3,0,0,1,.16,0,2.66,2.66,0,0,0,.67-1.1q.12-.49.3-1-.08-1.17-.12-2.37c0-.8,0-1.59,0-2.41V45.11c0-.92,0-1.85,0-2.82V40.11a13.16,13.16,0,0,0-2.43-.23H26l-.82,0c0-.13-.11-.19-.19-.19s-.05,0-.05.06h0l0,0v0a.5.5,0,0,1,.2-.25.64.64,0,0,1,.35-.14.9.9,0,0,0-.2-.43.4.4,0,0,1-.1-.15.65.65,0,0,1,0-.19,1,1,0,0,1,.1-.29.7.7,0,0,0-.24.39c-.1,0-.16-.18-.16-.43v-.79a.8.8,0,0,1,.22.23.43.43,0,0,0,.12.11.27.27,0,0,0,.15.05,2.68,2.68,0,0,0-.13-.56,1.45,1.45,0,0,1-.11-.5q0-.27.24-.27a1.64,1.64,0,0,0-.09.44.39.39,0,0,0,.08.2A.4.4,0,0,0,25.39,37.28ZM32.8,54.56c0-.15,0-.23-.15-.23s-.09,0-.09.1S32.64,54.56,32.8,54.56ZM28.22,55l-.09.1c0,.09-.06.12-.06.1v0ZM24.91,38,25,38a.26.26,0,0,0,.13.06c.05,0,.09-.05.11-.14a.18.18,0,0,1-.13-.06.33.33,0,0,0-.14,0S24.93,37.88,24.91,38Zm1.73,1.75c.24,0,.36-.1.36-.29s0-.1-.09-.1-.18,0-.19.16A.36.36,0,0,1,26.64,39.7Zm8,15.8h-.15s-.08,0-.08.09a.4.4,0,0,1,.15,0C34.62,55.59,34.62,55.56,34.62,55.5ZM34.39,59c0-.07,0-.11-.07-.11s-.06,0-.06.11,0,0,0,0,0,0,0,0,0,0,0,0h0s.07,0,.09-.06Z" transform="translate(-5.79 -4.95)"/><path class="cls-1" d="M55.62,51.58v-.07h0c.06,0,.09,0,.09.07l0,.06s0,0,0,0S55.62,51.64,55.62,51.58Zm.49,2.54c.12,0,.18.08.18.14v.2c0,.07,0,.1.08.1s-.08.17-.12.17-.07,0-.1-.12a.66.66,0,0,1,0-.28.37.37,0,0,1,0-.18ZM46.6,58.18l.13-.07a.17.17,0,0,1-.09.13c-.09.06-.1.1-.13.1Zm7,.69c0-.06,0-.1.06-.1s.09,0,.09.1a.08.08,0,0,1-.06.07C53.64,58.94,53.62,58.91,53.62,58.87Zm-10.71.27V59c.06,0,.09,0,.09.1l-.06.09S42.91,59.22,42.91,59.14Zm13.2,0V59h.11c.08,0,.12.08.12.26C56.19,59.27,56.11,59.23,56.11,59.17Zm-1.49-19.6c0,.07,0,.1.05.1s.07,0,.07-.1a4.17,4.17,0,0,1,0,.5,4.28,4.28,0,0,1-.3,1.59c-.2.51-.4,1-.57,1.43a15.59,15.59,0,0,1-.77,1.59A13.33,13.33,0,0,1,52.27,46c.26.31.56.65.93,1a14.71,14.71,0,0,1,1,1.21A6.93,6.93,0,0,1,55,49.64,3.33,3.33,0,0,1,55.35,51c0,.11,0,.17-.11.17s-.12,0-.14.13a.5.5,0,0,0,.08.2.4.4,0,0,0,.15.14.46.46,0,0,1,.14.17.42.42,0,0,1,0,.22.62.62,0,0,1,0,.23.87.87,0,0,0,.17.21.89.89,0,0,0,.25.14c.17,0,.25.2.25.45a.57.57,0,0,1,0,.26.81.81,0,0,0-.3-.13c-.1,0-.14.09-.12.28a1,1,0,0,1-.07.52.28.28,0,0,1,.15.08.38.38,0,0,1,.09.15,2.23,2.23,0,0,1,.1.43,2.23,2.23,0,0,0,.06.41c0,.12.05.19.09.19s.09,0,.09-.07a.36.36,0,0,0,0-.09.05.05,0,0,1,0,0,.14.14,0,0,1,0-.06s0,0,.09,0a.12.12,0,0,1,.12.12.71.71,0,0,1,0,.29v.39l-.08-.05h-.1a.19.19,0,0,0-.1,0,.12.12,0,0,0-.06.08.79.79,0,0,0,0,.22c0,.16,0,.23.09.23h0a.16.16,0,0,1,0-.07s.08.09.08.13a.5.5,0,0,1-.16.33.44.44,0,0,0-.12.15.41.41,0,0,0,0,.18,1,1,0,0,0,0,.3.46.46,0,0,1,.05.2q0,.16-.21.21c0,.08,0,.12.14.12h.23a.86.86,0,0,1-.13.38.9.9,0,0,1-.28.27,1.9,1.9,0,0,1-.57.18c0,.07,0,.1.09.1a.26.26,0,0,1,.15,0,.49.49,0,0,1-.21,0,1.17,1.17,0,0,1-.67-.25,2.15,2.15,0,0,0-.56-.34,2.62,2.62,0,0,1-.56.09.54.54,0,0,1-.25-.06.49.49,0,0,1-.18-.17.1.1,0,0,0-.08.06.14.14,0,0,0,0,.11,1.22,1.22,0,0,1,0,.27.36.36,0,0,1-.11-.17.78.78,0,0,1,0-.3.66.66,0,0,1,0-.28.19.19,0,0,1,.08-.1.14.14,0,0,1,.11,0,.24.24,0,0,1,.15,0,1,1,0,0,0,0-.3c-.05-.14-.09-.2-.13-.2s0,0,0,.09c-.1-.9-.22-1.79-.36-2.65a12.87,12.87,0,0,0-.56-2.38,7.15,7.15,0,0,0-1-1.93,4,4,0,0,0-1.64-1.26,3.1,3.1,0,0,0-.61-.79q-.15.26-.09.3s-.05,0-.27.09-.24,0-.24-.13a.29.29,0,0,1,0-.13v-.13a.19.19,0,0,0,0-.1.19.19,0,0,0-.06-.07,1,1,0,0,1-.32.41.78.78,0,0,1-.35.15L47,48.7a.54.54,0,0,0-.21.08v7.83c-.14-.06-.21-.12-.21-.17a.32.32,0,0,1,0-.14,1.14,1.14,0,0,0,.06-.25q-.39,0-.39.36a.67.67,0,0,0,.1.34.34.34,0,0,0,.12.12.35.35,0,0,0,.17,0,.24.24,0,0,0,.12,0,1.15,1.15,0,0,1,0,.41.74.74,0,0,0-.05.25,1.14,1.14,0,0,0,.09.26.28.28,0,0,1-.13-.11.4.4,0,0,1-.08-.16.37.37,0,0,0-.11-.18.36.36,0,0,0-.19-.08v.95a2.61,2.61,0,0,1-.08.56c0,.17-.1.26-.18.26a.4.4,0,0,0-.26.06,1.59,1.59,0,0,0-.13.13l-.17.13a.61.61,0,0,1-.35.07,1.83,1.83,0,0,1-.5-.26,2.42,2.42,0,0,0-.5-.27c-.1.07-.15.11-.15.14s.05.08.15.1a.26.26,0,0,1,.11.07.2.2,0,0,1,0,.13.16.16,0,0,1,0,.09,1.25,1.25,0,0,1-.77-.45,1,1,0,0,1-.17-.56,1.06,1.06,0,0,1,.09-.36h-.07a0,0,0,0,0,0,0,.1.1,0,0,0-.1.11,1,1,0,0,0,0,.24v.22c0,.08,0,.12-.06.12s-.07-.21-.07-.64,0-1,0-1.54v-5a.36.36,0,0,0,.14.1.53.53,0,0,0,.22,0,.26.26,0,0,1-.09-.16s0-.06.09-.11a.06.06,0,0,0-.06-.06l-.12,0a.28.28,0,0,1-.18,0,2.67,2.67,0,0,0,0-.4V49.35c0-.43,0-.87,0-1.32V47.2a.35.35,0,0,1,0-.13.19.19,0,0,1,.08-.1.17.17,0,0,0,.1-.13.57.57,0,0,0-.21-.13.1.1,0,0,1,.09-.1h.14l.14.07a4.74,4.74,0,0,0-.06-.75c0-.19-.09-.36-.14-.53s-.1-.35-.14-.53a4.17,4.17,0,0,1-.06-.71v-.27c0-.13,0-.19.12-.19a.32.32,0,0,0,.14,0l.11-.08a1.3,1.3,0,0,0,.1-.25c0-.1.07-.19.11-.27a.45.45,0,0,1,.18-.18,1.4,1.4,0,0,1-.09-.29q-.06-.24-.09-.24a.41.41,0,0,0-.16,0,.35.35,0,0,0-.11.1,1.2,1.2,0,0,0-.16.27c-.05-.45-.09-.9-.12-1.36s0-.92,0-1.36,0-1.14,0-1.69V35.59h3.83v1.32a5.69,5.69,0,0,1-.06.83c0,.24-.11.39-.21.44s.06.15.13.12.11.07.11.27a2.92,2.92,0,0,1,0,.51,1.65,1.65,0,0,0-.05.38,1.12,1.12,0,0,0,.09.44c-.17,0-.24.05-.24.16v.07c.06,0,.09,0,.09-.07a6,6,0,0,1,.11,1.12c0,.31,0,.61,0,.89v1.26a2.2,2.2,0,0,0,0,.56c.05.21,0,.36.07.51s.07.22.11.22a1,1,0,0,0,.45-.14,1.05,1.05,0,0,1,.49-.13q.21,0,.24.27a7.8,7.8,0,0,1,.56-.7,2,2,0,0,1,.7-.56,1.52,1.52,0,0,1,.37-.71,2.35,2.35,0,0,0,.51-.91h0l0,0,0,0v0a.48.48,0,0,0,0,.17c.06-.32.14-.65.24-1s.21-.75.33-1.17.2-.85.28-1.28a7.26,7.26,0,0,0,.12-1.31V36.7a1.53,1.53,0,0,1,.11-.47,1.87,1.87,0,0,0,.4,0h.45c.4,0,.81,0,1.22,0s.85,0,1.3,0a.89.89,0,0,1,.32,0,.16.16,0,0,1,.1.08.23.23,0,0,1,0,.14,9.3,9.3,0,0,1,0,1c0,.36,0,.7-.09,1a3.45,3.45,0,0,1-.18.77C54.84,39.48,54.74,39.57,54.62,39.57ZM43.39,38.11c0-.06,0-.1-.06-.1s-.06,0-.06.1v0h0A.14.14,0,0,0,43.39,38.11Zm0,1.33a.36.36,0,0,0,.09-.24.56.56,0,0,0-.08-.33.61.61,0,0,0-.25-.23.9.9,0,0,1,.09.43.39.39,0,0,0,0,.21A.38.38,0,0,0,43.39,39.44Zm8,.39s0-.06-.07-.06-.06,0-.06.06,0,.11.06.11Zm-8,2.16s0-.06-.06-.06-.06,0-.06.06,0,.11.06.11Zm.25,3.13s0,.07.07.07.09,0,.09-.1a.33.33,0,0,0,0-.14l0,0-.07,0v.23Zm0,1.23s.07-.07.07-.2,0-.26-.09-.26l-.06.06a.25.25,0,0,0,0,.17c-.05.13,0,.22.08.22Zm0,.26c0-.06,0-.1,0-.1s-.06,0-.06.1,0,.06.06.06l0-.07Zm-.48.67c0-.07,0-.1-.09-.1l0,0v.06c0,.07,0,.1.06.1Zm.12,1.88a.37.37,0,0,0-.05-.23.37.37,0,0,0-.19-.16.37.37,0,0,0,.05.23.34.34,0,0,0,.18.15Zm9.6,5s0-.06-.05-.06-.06,0-.06.06,0,.1.06.1Zm0,1.37c0-.05,0-.08-.05-.08s-.06,0-.06.08,0,.09.06.09Zm0,1.09a.12.12,0,0,0,.1,0c.12,0,.18-.07.18-.22s-.06-.27-.18-.27-.13.08-.13.24v.13a.07.07,0,0,1,0,.07ZM44.36,58.5v.16c0,.09,0,.13.12.13s.18-.09.18-.26,0-.16-.09-.16-.06,0-.06.06-.07,0-.15,0Zm-.61.13a.25.25,0,0,1-.15,0c-.06,0-.09,0-.09.1a.29.29,0,0,1,.16,0,.13.13,0,0,0,.08-.13Z" transform="translate(-5.79 -4.95)"/><path class="cls-1" d="M68.55,55.72s0,0,0,0,0-.1-.15-.18a.77.77,0,0,1-.18-.18,2.5,2.5,0,0,1,.94-.14h1.21a3.44,3.44,0,0,0,.46,0,.27.27,0,0,1,.1.17.11.11,0,0,1,0,.08.13.13,0,0,1-.07.06.39.39,0,0,0-.08.1.16.16,0,0,0,0,.12l.24,0a.48.48,0,0,1,.31.08.24.24,0,0,0,.09.06.25.25,0,0,0,.12,0s.06,0,.06,0,0-.1-.09-.1a.26.26,0,0,1,.21-.06.29.29,0,0,1,.13,0H72l.22,0c.1,0,.15-.07.15-.13s0-.14-.1-.14v.07a.11.11,0,0,1-.12-.1s.06-.09.19-.13a1.21,1.21,0,0,1,.33-.07.71.71,0,0,1,.29,0l.12.1.08.1s0,0,.15,0,.15,0,.15-.13.05-.14.15-.14h1.53a2,2,0,0,0,.35,0c0,.69,0,1.23,0,1.63s0,.81,0,1.25v.53a3.36,3.36,0,0,0,.06.63.51.51,0,0,1-.26.14,2.07,2.07,0,0,1-.35,0H74a.63.63,0,0,1,.06-.27.4.4,0,0,0,.06-.26.46.46,0,0,1-.18.13.5.5,0,0,1-.21.05c-.16,0-.24.13-.24.35a.16.16,0,0,1-.08-.06.24.24,0,0,1,0-.09,1,1,0,0,0,0-.24s-.09,0-.1.06a.38.38,0,0,0,0,.15.23.23,0,0,1,0,.14.34.34,0,0,1-.2,0c-.24,0-.37-.07-.37-.2a.41.41,0,0,1,.13-.19.37.37,0,0,0-.19.16.37.37,0,0,0-.05.23.24.24,0,0,1-.12-.07.26.26,0,0,1-.08-.13l-.09-.27a.94.94,0,0,0-.12-.22.26.26,0,0,0-.13-.08.3.3,0,0,0-.16,0,.36.36,0,0,0-.25.06l-.08.13-.07.13c0,.05-.07.08-.15.08v-.4c-.08,0-.11.09-.11.23s0,.17.11.17-.1.12-.11.12-.12,0-.17-.15a.24.24,0,0,0-.1-.1.22.22,0,0,0-.13,0h-.1a.28.28,0,0,0,.14.16c.05,0,.08,0,.08.08a.42.42,0,0,1-.07.13.18.18,0,0,1-.07.08.2.2,0,0,1-.11,0,.12.12,0,0,1-.08,0l0,0,0,0h-.06l-.42.09a2.57,2.57,0,0,1-.73.1c-.56,0-1.13,0-1.61,0A11.59,11.59,0,0,1,66.16,59c0-.15,0-.23.13-.26a.07.07,0,0,1,0-.05.11.11,0,0,1,0,0h0s-.08,0-.12.15a.15.15,0,0,1-.08.11.23.23,0,0,1-.14,0,.1.1,0,0,1-.09,0,.16.16,0,0,1-.07-.07s-.13-.08-.29-.08a8.66,8.66,0,0,1-2.22-2.09,7,7,0,0,1-1.37-3.07v-12a6.82,6.82,0,0,1,.26-1.19c.1-.36.22-.73.35-1.13a.34.34,0,0,0,.18,0A1.06,1.06,0,0,0,63,39.2c.15-.05.23-.1.23-.14,0-.22-.13-.34-.37-.34.14-.25.28-.48.4-.71a1.09,1.09,0,0,1,.56-.52.31.31,0,0,1,0,.38.62.62,0,0,1-.14.14,1.3,1.3,0,0,1-.46.18q.3.14.3.33a.53.53,0,0,1-.19.33.56.56,0,0,0,.31-.12.68.68,0,0,0,.22-.26,1.57,1.57,0,0,0,.15-.68,1.31,1.31,0,0,0,0-.28.64.64,0,0,0-.05-.28.79.79,0,0,0,.26-.19.38.38,0,0,1,.15-.09.47.47,0,0,1,.17,0h.18c.12,0,.19,0,.19-.14V36.7a.17.17,0,0,1,0-.1s0-.07.09-.07a1.82,1.82,0,0,1,.62-.43,5.66,5.66,0,0,1,.79-.27l.81-.15c.24,0,.5-.06.72-.11,1.17,0,2.25.06,3.22,0a22.64,22.64,0,0,1,2.85.11,1.57,1.57,0,0,1,.6-.12h.74a5.45,5.45,0,0,1,.12.81v1.92c0,.35,0,.67,0,1a1.5,1.5,0,0,0,0,.3v.3H73.86a6.36,6.36,0,0,1-.87-.06,2.53,2.53,0,0,1-.75-.24.68.68,0,0,0-.28.18c0,.07-.21.09-.53.09H68.67a5.19,5.19,0,0,1-.88-.13,2.05,2.05,0,0,0-1.69,1.19,5.72,5.72,0,0,0-.48,2.52V44a2.6,2.6,0,0,0,0,.57H70.6v4.18h-2a.18.18,0,0,0,.06-.13,1.07,1.07,0,0,0-.06-.27q-.12,0-.12.15v.25a2.41,2.41,0,0,1-.38,0H65.79c-.05.37-.09.81-.12,1.3s0,1,0,1.52a8.79,8.79,0,0,0,.16,1.69,1.83,1.83,0,0,0,.6,1.13c0,.19,0,.3-.13.31s-.11.08-.11.22a.81.81,0,0,1,.44.18.58.58,0,0,0,.34.14c.12,0,.2-.1.22-.32h0l0,0a.08.08,0,0,1,0,0v0a1,1,0,0,0,0,.25c0-.17.23-.26.56-.26a.44.44,0,0,1,.32.07.42.42,0,0,1,.1.2.74.74,0,0,0,0,.21c0,.05,0,.08.13.08a.2.2,0,0,0,.08.08A.14.14,0,0,0,68.55,55.72Zm1.21,3.38c0,.09.08.14.24.14h.27a.16.16,0,0,0-.08-.1.2.2,0,0,0-.13,0Zm-5.43-22q0,.39.24.39l0,0v-.05c0-.11.07-.18.23-.2s.22-.06.22-.1a.67.67,0,0,0-.15-.14q-.15.24-.3.24l-.11,0-.1-.07Zm-2.08,6.21a.5.5,0,0,0-.06-.24.42.42,0,0,0-.19-.16.37.37,0,0,0,.25.4Zm5.31,1.62c0-.06,0-.1-.13-.1s-.12,0-.12.1,0,.1.06.1h0l0,0ZM64.34,57.75l.12-.19a.3.3,0,0,0,.06-.18.34.34,0,0,0,0-.17.4.4,0,0,0-.13-.13.65.65,0,0,0-.09.16.81.81,0,0,0-.06.31c0,.13,0,.2.14.2Zm1,.4s-.09,0-.11,0l0,0h0s-.05,0-.05.08,0,0,0,.05,0,0,0,0l0,0h0s.09,0,.1-.12Zm2,.69a.23.23,0,0,0-.09-.08.17.17,0,0,0-.12,0c-.1,0-.15,0-.15.16s.06.17.18.17.19-.08.19-.23Zm4.19.39a.32.32,0,0,0,.12.11h0s-.08,0-.1-.12Z" transform="translate(-5.79 -4.95)"/><path class="cls-1" d="M81.35,54.15s0-.08.09-.09l.16,0a.08.08,0,0,1,0,0l0,0,0,0h0A.4.4,0,0,1,81.35,54.15Zm.12.17h.09c.18,0,.27.1.27.33a.37.37,0,0,1,0,.18.49.49,0,0,1-.1.15c-.18,0-.27-.17-.27-.44v-.12a.14.14,0,0,0,0-.09Zm6.92,1c.1-.11.16-.16.18-.16s.09,0,.09.13,0,.14-.09.14a.19.19,0,0,1-.1,0,.16.16,0,0,1-.08-.06ZM88.63,59c0-.07,0-.1.13-.1s.12,0,.12.1l-.1.06a.08.08,0,0,1,0,0h0s-.06,0-.06-.08Zm-.24.39c0-.08,0-.11.12-.1h.25l0,0s0,0,0,0l0,0H88.6a.75.75,0,0,0-.21,0Zm-4-23a.88.88,0,0,0,.23,0,.12.12,0,0,0,.09,0,.22.22,0,0,0,0-.08.31.31,0,0,1,.09.11.21.21,0,0,1,0,.15.9.9,0,0,1-.09.4,1.1,1.1,0,0,1-.15.26.76.76,0,0,1,.29.45,2.65,2.65,0,0,1,.11.74,2.78,2.78,0,0,1-.07.57.71.71,0,0,1-.21.39,1.07,1.07,0,0,1,.2.52c0,.22,0,.45,0,.68v.83a.61.61,0,0,0-.36-.13.55.55,0,0,1,.2.17.59.59,0,0,1,.1.26,3.93,3.93,0,0,1,.06.69v1a1.34,1.34,0,0,0,0,.4.48.48,0,0,1-.11.09.28.28,0,0,1-.13,0,.37.37,0,0,1-.14,0,.43.43,0,0,1-.1-.09,1.13,1.13,0,0,0,.06.36c0,.13.1.2.18.2s.1-.05.12-.13a14.59,14.59,0,0,1,0,4.31,9.82,9.82,0,0,1,.12,1.62v2a8.26,8.26,0,0,0,.06,1,1.54,1.54,0,0,0,.34.86l-.13.28a1.55,1.55,0,0,0-.12.28,6.09,6.09,0,0,0,1.4.87,3.46,3.46,0,0,0,1.46.29h.18l.28,0c.16,0,.24.06.24.08s0,0,0,.06l0,0a.17.17,0,0,0,0,.1.1.1,0,0,0,0,.09.18.18,0,0,0,.07,0A4.59,4.59,0,0,0,89.3,56c.2-.12.3-.24.3-.37a.24.24,0,0,0-.06-.17l.94-.11c.34,0,.69,0,1,0l1.17,0h2.14v4.17H89.27c0-.41-.06-.64-.18-.68a1.8,1.8,0,0,0-.46-.05,1.2,1.2,0,0,0-.61.2.35.35,0,0,0,0,.13.39.39,0,0,0,.1.08.18.18,0,0,1,.1.09.31.31,0,0,1,0,.13s0,.08-.14.08h-1a.29.29,0,0,1,.13-.18.24.24,0,0,0,.08-.09.28.28,0,0,0,0-.12.27.27,0,0,0-.09-.12.31.31,0,0,0-.13-.06c-.1,0-.15-.09-.15-.18s0-.11.12-.17a2.36,2.36,0,0,1-.9-.24,2.48,2.48,0,0,0-1-.23.55.55,0,0,0-.18,0,.6.6,0,0,0-.15.09.4.4,0,0,0-.09.21,1,1,0,0,1,0,.24.18.18,0,0,1,0,.1.14.14,0,0,1-.08.07c-.1,0-.15-.09-.15-.26v-.22a.81.81,0,0,0,0-.22.14.14,0,0,0-.15-.16.17.17,0,0,0-.1,0l-.08,0a.16.16,0,0,0-.06.08.16.16,0,0,0,0,.1.29.29,0,0,1,0,.09l-.06.08-.09,0H83.8a1.87,1.87,0,0,0,0-.34.75.75,0,0,0-.07-.36,2.35,2.35,0,0,0-.19-.25,1.27,1.27,0,0,1-.18-.27,1,1,0,0,1-.07-.41c-.12,0-.2,0-.23.07a.18.18,0,0,0,0,.12v.17c0,.11-.07.17-.21.17l-.07,0-.06,0a.16.16,0,0,1,0-.07.17.17,0,0,1,0-.07.64.64,0,0,1,.07-.28.57.57,0,0,0,.08-.28c0-.11-.11-.17-.34-.17h-.15V54.46a.55.55,0,0,0-.2-.35A.33.33,0,0,1,82,54a.46.46,0,0,1,0-.2.37.37,0,0,1,0-.14.47.47,0,0,1,.09-.12.47.47,0,0,0-.34.11.37.37,0,0,1-.25.12s-.08,0-.15-.1a.37.37,0,0,0,.1-.23.47.47,0,0,0-.1-.3.88.88,0,0,1-.12-.26q-.06-.63-.09-1.29c0-.44,0-.89,0-1.33q0-1.69.09-3.48c.06-1.2.09-2.39.1-3.59V42.06A10,10,0,0,0,81.22,41a1,1,0,0,1,.15.24.67.67,0,0,1,0,.28v.2a1.26,1.26,0,0,0,0,.33.62.62,0,0,0,.25.3.59.59,0,0,0,.17-.24.56.56,0,0,0,0-.28,2.92,2.92,0,0,0,0-.51,2.59,2.59,0,0,1,0-.56.94.94,0,0,1,.07-.37,1.75,1.75,0,0,0,0-.4.14.14,0,0,0,0-.1.16.16,0,0,0-.08-.06.55.55,0,0,0-.28-.06c-.13,0-.21.06-.21.2s0,.19.13.19.12,0,.12-.13a.3.3,0,0,1,.09.13c0,.09-.07.15-.2.18a.27.27,0,0,0-.15.11.22.22,0,0,0,0,.18.37.37,0,0,0,0,.23,8.2,8.2,0,0,1-.18-1.56,3.19,3.19,0,0,1,.08-.75c.05-.23.13-.36.23-.38s0-.06-.07-.06h-.09c-.07,0-.12-.06-.12-.17a.5.5,0,0,1,.08-.26.67.67,0,0,0,.07-.34,1.93,1.93,0,0,0-.07-.53,2.1,2.1,0,0,1-.08-.56,1.41,1.41,0,0,1,0-.35.2.2,0,0,1,.2-.18c.17,0,.26.07.26.2V36a.4.4,0,0,1,.13-.18.43.43,0,0,1,.22-.06,1,1,0,0,1,.33.06,1.24,1.24,0,0,0,.33,0,1,1,0,0,0,.23-.06,1.4,1.4,0,0,1,.4-.07.4.4,0,0,1,.19,0,.42.42,0,0,1,.15.11,1.12,1.12,0,0,0,.32,0,.87.87,0,0,1,.32-.06.46.46,0,0,1,.3.11.44.44,0,0,1,.17.27h-.06a.25.25,0,0,0-.2.09.29.29,0,0,0-.09.2Zm.13-.43a1.68,1.68,0,0,0-.3.05c-.07,0-.1.09-.1.25a.39.39,0,0,0,.25-.08.43.43,0,0,0,.15-.2Zm-1.86.3c0-.07,0-.1-.12-.1s-.12,0-.12.1,0,.1.06.1a.2.2,0,0,0,.08,0Zm2,7.39h.18s.06-.09.06-.26c-.16,0-.24,0-.24.07Zm9.25,12.15.06.08s.08,0,.11-.14a.85.85,0,0,0,0-.22c0-.1,0-.14-.06-.14s-.09.06-.15.16h.12a.25.25,0,0,1-.06.16A.21.21,0,0,0,93.94,55.78Zm-11.1.41a.26.26,0,0,0,.09-.17l0-.11-.07-.09a1.25,1.25,0,0,0-.24-.16.43.43,0,0,0,0,.16C82.57,56.05,82.66,56.17,82.84,56.19Zm11.5,1.91h.09V58c0-.22-.11-.33-.31-.33,0,0-.06,0-.06.1S94.16,58.1,94.34,58.1Z" transform="translate(-5.79 -4.95)"/><path class="cls-1" d="M176.67,51.58v-.07h0s.08,0,.08.07l0,.06s0,0,0,0S176.67,51.64,176.67,51.58Zm.51,2.57c.12,0,.18.07.18.13a.24.24,0,0,1,0,.12v.08c0,.07,0,.1.08.1s-.07.17-.12.17-.07,0-.1-.12a.65.65,0,0,1-.05-.27A.5.5,0,0,1,177.18,54.15Zm-9.53,4,.13-.07a.4.4,0,0,1-.1.13c-.07.06-.09.1-.12.1Zm7,.69c0-.06,0-.1.06-.1a.09.09,0,0,1,.09.1.08.08,0,0,1-.06.07.07.07,0,0,1-.07-.07ZM164,59.14V59a.09.09,0,0,1,.09.1l-.07.09s0,0,0-.09Zm13.2,0V59h.11c.08,0,.12.08.12.26C177.24,59.27,177.16,59.23,177.16,59.17Zm-1.49-19.6c0,.07,0,.1.05.1s.07,0,.07-.1a4.17,4.17,0,0,1,0,.5,4.28,4.28,0,0,1-.3,1.59c-.2.51-.4,1-.57,1.43a15.59,15.59,0,0,1-.77,1.59,11.83,11.83,0,0,1-.84,1.36c.27.31.57.65.94,1a14.71,14.71,0,0,1,1,1.21,7.58,7.58,0,0,1,.85,1.36,3.32,3.32,0,0,1,.31,1.39c0,.11,0,.17-.1.17s-.12,0-.14.13a.48.48,0,0,0,.07.2.43.43,0,0,0,.16.14.46.46,0,0,1,.14.17.42.42,0,0,1,0,.22.62.62,0,0,1,0,.23.68.68,0,0,0,.17.21.84.84,0,0,0,.24.14c.18,0,.26.2.26.45a1.09,1.09,0,0,1,0,.26.81.81,0,0,0-.3-.13c-.1,0-.14.09-.12.28a1,1,0,0,1-.07.52.28.28,0,0,1,.15.08.38.38,0,0,1,.09.15,2.23,2.23,0,0,1,.1.43,2.23,2.23,0,0,0,.06.41c0,.12,0,.19.09.19s.09,0,.09-.07a.2.2,0,0,0-.05-.09.21.21,0,0,1,0-.11.12.12,0,0,1,.09,0,.12.12,0,0,1,.12.12,1.36,1.36,0,0,1,0,.29v.39l-.08-.05h-.1a.19.19,0,0,0-.1,0,.12.12,0,0,0-.06.08.54.54,0,0,0-.05.22c0,.16,0,.23.09.23a0,0,0,0,0,0,0,.15.15,0,0,1,0-.07c.06,0,.09.09.09.13a.5.5,0,0,1-.16.33.44.44,0,0,0-.12.15.41.41,0,0,0-.05.18,1,1,0,0,0,0,.3.46.46,0,0,1,.05.2c0,.11-.07.18-.22.21,0,.08.05.12.14.12h.23a.85.85,0,0,1-.12.38.84.84,0,0,1-.29.27,1.69,1.69,0,0,1-.59.18c0,.07,0,.1.09.1a.26.26,0,0,1,.15,0,.49.49,0,0,1-.21,0,1.17,1.17,0,0,1-.67-.25,2.46,2.46,0,0,0-.56-.34,2.62,2.62,0,0,1-.56.09.54.54,0,0,1-.25-.06.49.49,0,0,1-.18-.17l-.05,0s0,0,0,0l0,0a.13.13,0,0,0,0,.06,1.22,1.22,0,0,1,0,.27.38.38,0,0,1-.12-.17,1,1,0,0,1,0-.3.86.86,0,0,1,0-.28.39.39,0,0,1,.08-.1.17.17,0,0,1,.12,0,.24.24,0,0,1,.15,0,1,1,0,0,0-.05-.3c0-.14-.09-.2-.13-.2s-.05,0-.05.09c-.1-.9-.22-1.79-.36-2.65a12.87,12.87,0,0,0-.56-2.38,7.15,7.15,0,0,0-1-1.93,4,4,0,0,0-1.64-1.26,3.1,3.1,0,0,0-.61-.79q-.15.26-.09.3s-.05,0-.27.09-.24,0-.24-.13a.29.29,0,0,1,0-.13.59.59,0,0,0,0-.13.18.18,0,0,0,0-.1.16.16,0,0,0-.07-.07.9.9,0,0,1-.31.41.82.82,0,0,1-.36.15l-.33.05a.49.49,0,0,0-.21.08v6.94a8.63,8.63,0,0,0,0,.89c-.15-.06-.21-.12-.21-.17a.32.32,0,0,1,0-.14,1.14,1.14,0,0,0,.06-.25c-.27,0-.4.12-.4.36a.6.6,0,0,0,.11.34.34.34,0,0,0,.12.12.33.33,0,0,0,.17,0,.27.27,0,0,0,.12,0,1.12,1.12,0,0,1,0,.41.57.57,0,0,0-.06.25.82.82,0,0,0,.1.26.36.36,0,0,1-.14-.11.33.33,0,0,1-.07-.16.37.37,0,0,0-.11-.18.39.39,0,0,0-.2-.08v.35a4.16,4.16,0,0,1,0,.6,2.6,2.6,0,0,1-.07.56c0,.17-.1.26-.19.26a.39.39,0,0,0-.25.06l-.13.13-.17.13a.61.61,0,0,1-.35.07,1.83,1.83,0,0,1-.5-.26,2.42,2.42,0,0,0-.5-.27C165,59,165,59,165,59s0,.08.15.1a.26.26,0,0,1,.11.07.2.2,0,0,1,0,.13.14.14,0,0,1,0,.09,1.22,1.22,0,0,1-.77-.45,1,1,0,0,1-.17-.56,1.06,1.06,0,0,1,.09-.36h-.08a0,0,0,0,0-.05,0c-.05,0-.09,0-.1.11v.46c0,.08,0,.12-.06.12s-.06-.21-.07-.64V51.58a.5.5,0,0,0,.14.1.56.56,0,0,0,.22,0,.26.26,0,0,1-.09-.16.38.38,0,0,1,.09-.11.06.06,0,0,0,0-.06.28.28,0,0,0-.13,0,.28.28,0,0,1-.18,0,2.67,2.67,0,0,0,0-.4V49.35c0-.43,0-.87,0-1.32a2.81,2.81,0,0,1,0-.41V47.2a.21.21,0,0,1,0-.13.25.25,0,0,1,.08-.1c.07,0,.11-.09.11-.13a.72.72,0,0,0-.21-.13c0-.07,0-.1.08-.1h.14l.14.07a4.74,4.74,0,0,0-.06-.75c0-.19-.09-.36-.13-.53a3.18,3.18,0,0,1-.14-.53,3.35,3.35,0,0,1-.07-.71v-.27c0-.13,0-.19.12-.19a.32.32,0,0,0,.14,0l.11-.08a2.72,2.72,0,0,0,.11-.25,1.48,1.48,0,0,1,.1-.27.45.45,0,0,1,.18-.18,1.4,1.4,0,0,1-.09-.29q-.06-.24-.09-.24a.37.37,0,0,0-.15,0,.29.29,0,0,0-.12.1,1.17,1.17,0,0,0-.15.27,12.27,12.27,0,0,1-.12-1.36c0-.47,0-.92,0-1.36s0-1.14,0-1.69V35.59h3.82v1.32a5.69,5.69,0,0,1-.06.83.62.62,0,0,1-.21.44c0,.11.06.15.13.12s.11.07.11.27a2.15,2.15,0,0,1,0,.51,1.26,1.26,0,0,0-.06.38,1.34,1.34,0,0,0,.1.44c-.16,0-.24.05-.24.16v.07h0c.06,0,.09,0,.09-.07a6,6,0,0,1,.09,1q0,.46,0,.9c0,.29,0,.56,0,.89v.37a4,4,0,0,0,.06.56,4,4,0,0,0,.07.5c0,.15.06.22.11.22a1.17,1.17,0,0,0,.45-.13,1.2,1.2,0,0,1,.49-.14c.13,0,.22.09.24.27.18-.24.37-.47.56-.69a2.08,2.08,0,0,1,.71-.57,1.44,1.44,0,0,1,.37-.71,2.44,2.44,0,0,0,.51-.9c.05,0,.08,0,.08.09a.33.33,0,0,0,0,.17c.06-.31.14-.65.24-1s.21-.75.32-1.18.2-.84.29-1.28a7.17,7.17,0,0,0,.12-1.31v-.53a1.2,1.2,0,0,1,.11-.46,1.8,1.8,0,0,0,.4,0h.44c.41,0,.82,0,1.23,0s.85,0,1.3,0a.8.8,0,0,1,.31,0,.24.24,0,0,1,.11.09.31.31,0,0,1,0,.13c0,.33,0,.68,0,1s-.05.69-.09,1a3.36,3.36,0,0,1-.18.76c-.09.28-.19.37-.31.37Zm-11.23-1.46c0-.06,0-.1-.07-.1s-.05,0-.05.1,0,.07.05.07.08,0,.09-.07Zm0,1.33a.31.31,0,0,0,.08-.24.55.55,0,0,0-.07-.33.58.58,0,0,0-.26-.23.8.8,0,0,1,.1.43.31.31,0,0,0,0,.21.4.4,0,0,0,.13.16Zm8,.39v0l0,0,0,0h0s-.06,0-.06.06,0,.11.06.11Zm-8,2.16v0l0,0h0s-.05,0-.05.06,0,.11.05.11Zm.24,3.12s0,.06.06.06a.08.08,0,0,0,.09-.09.24.24,0,0,0-.05-.14.08.08,0,0,0,0,0l-.06,0s0,0,0,0a.41.41,0,0,1,0,.2Zm0,1.23s.06-.07.06-.2,0-.27-.09-.27l-.06.07a.47.47,0,0,0,0,.17c0,.14.07.23.14.23Zm0,.26c0-.07,0-.1-.06-.1s-.06,0-.06.1,0,.06.06.06a.11.11,0,0,0,.08-.06Zm-.49.67c0-.07,0-.1-.08-.1l0,0v.07c0,.06,0,.1.07.1Zm.13,1.88a.5.5,0,0,0-.06-.24.36.36,0,0,0-.19-.15.41.41,0,0,0,.06.24.39.39,0,0,0,.21.15Zm9.63,5s0-.06,0-.06-.06,0-.06.06,0,.1.06.1Zm0,1.37c0-.05,0-.08,0-.08s-.06,0-.06.08,0,.09.06.09Zm0,1.09.05,0h.05c.12,0,.18-.07.18-.22s-.06-.27-.18-.27-.12.08-.12.24a.29.29,0,0,0,0,.13.1.1,0,0,1,0,.07Zm-8.52,1.89a.06.06,0,0,1,0,.06v.1c0,.09,0,.13.12.13s.18-.09.18-.26,0-.16-.09-.16-.06,0-.06.06-.07,0-.15,0Zm-.61.13a.25.25,0,0,1-.15,0c-.06,0-.08,0-.08.1a.25.25,0,0,1,.15,0,.12.12,0,0,0,.09-.13Z" transform="translate(-5.79 -4.95)"/><path class="cls-1" d="M183.7,35.72a.27.27,0,0,1,.06.17.64.64,0,0,1,0,.2.67.67,0,0,0,0,.2.28.28,0,0,0,0,.13.28.28,0,0,0,.09.1.39.39,0,0,0-.12.19H184c.08,0,.12.1.12.22q.15-.06.15-.36a1.41,1.41,0,0,0,0-.28,2.64,2.64,0,0,1,0-.29.19.19,0,0,1,0-.12.16.16,0,0,1,.11-.07l.33-.09h.58a3.76,3.76,0,0,1,1.25.15c.23.1.35.41.35.92a4.29,4.29,0,0,1,0,.63q0,.31,0,.63v.29a1.5,1.5,0,0,1,0,.3c0,.57,0,1.19-.06,1.86s-.06,1.31-.06,2a10.51,10.51,0,0,0,.06,1.12,9.42,9.42,0,0,1,.06,1.06v7.83a.65.65,0,0,0,.08.31.72.72,0,0,1,.08.32v.1a.17.17,0,0,0,0,.1c.18.26.36.53.56.77a2.63,2.63,0,0,0,.56.64,3.09,3.09,0,0,0,.85.43,3.44,3.44,0,0,0,1.15.16,2.65,2.65,0,0,0,1.3-.61,6.08,6.08,0,0,0,.95-1c.06-.24.11-.48.17-.71a.77.77,0,0,1,.1-.29.74.74,0,0,1,.21-.22c-.06-.84-.1-1.7-.12-2.57s0-1.78,0-2.71,0-2.16,0-3.25,0-2.14,0-3.18V38.69h.37l-.15-.15s-.05,0-.07-.06a.29.29,0,0,1,0-.09s0-.06.12-.06.12,0,.12-.06A.59.59,0,0,0,193,38a.32.32,0,0,1-.08-.21.08.08,0,0,1,0-.07.09.09,0,0,1,.06,0l.05,0a.14.14,0,0,0,0-.06.22.22,0,0,0,0-.08.16.16,0,0,0,0-.07l-.07,0a.11.11,0,0,0-.08,0c-.13,0-.2-.06-.2-.17a.31.31,0,0,1,0-.13.27.27,0,0,0,.18.1c.1,0,.17-.07.19-.23a.36.36,0,0,0-.06-.2.37.37,0,0,0-.17-.13c-.13,0-.19-.17-.19-.37a.28.28,0,0,1,0-.15.29.29,0,0,1,.11-.11,1.36,1.36,0,0,1,.39-.17,3.08,3.08,0,0,1,.53-.08h1.55a2.58,2.58,0,0,0,.39,0,1.14,1.14,0,0,0,.15.23.22.22,0,0,1,.05.08.29.29,0,0,1,0,.09l-.07.26.08,0a.18.18,0,0,0,.07,0l.05-.07a.28.28,0,0,0,0-.09.29.29,0,0,0,0-.13v-.14a.14.14,0,0,1,0-.07s0,0,.06-.05a.69.69,0,0,1,.32,0c.1,0,.14.08.14.23a.49.49,0,0,1,0,.17v1.22c0,.42,0,.85,0,1.26v1.3c0,1.26,0,2.52.06,3.79s.07,2.54.07,3.8v1.43c0,.46,0,.91-.05,1.36a1.3,1.3,0,0,1-.07.33,1.2,1.2,0,0,0,0,.33,3.57,3.57,0,0,0,.06.65,3.15,3.15,0,0,1,.06.61,6.12,6.12,0,0,1-.47,2.43q-.46,1.13-.9,2a9.35,9.35,0,0,1-.9.88c-.33.28-.64.57-1,.88-.11,0-.18,0-.18-.07l.06-.2a.45.45,0,0,0-.17.11.42.42,0,0,0-.1.17.92.92,0,0,1-.21.39,6,6,0,0,0-1.16.43,2.81,2.81,0,0,1-1.21.27,8.16,8.16,0,0,1-2.9-.46,6,6,0,0,1-2.12-1.27,6.26,6.26,0,0,1-1.45-2,12,12,0,0,1-.9-2.6V50.31a.19.19,0,0,1,0-.08.16.16,0,0,1,0-.07l.06,0h.08c.13,0,.2,0,.2-.14v0a.22.22,0,0,0-.14.08l-.06.06-.08,0a2.88,2.88,0,0,1,0-.59V43.3a2.51,2.51,0,0,1,0-.61c0-.06,0-.1,0-.1a.18.18,0,0,1,.08-.07.21.21,0,0,1,.11,0c.1,0,.19,0,.29-.2s-.11-.2-.21-.2h-.19s-.06-.07-.08-.21a3.87,3.87,0,0,1,0-.48v-.77l.07.07a.11.11,0,0,1,0,.08c0,.08.06.13.16.15a1,1,0,0,1,.49-.56c0-.07,0-.1-.06-.1h0l0,0s-.06.06-.08.06-.06,0-.06-.1v-.07a.17.17,0,0,0,0-.1,2.65,2.65,0,0,1-.07-.48,2.23,2.23,0,0,0-.18-.57,2.14,2.14,0,0,0,.11-.56,2.44,2.44,0,0,1,.07-.46.5.5,0,0,1,.18-.31,1,1,0,0,1,.49-.16.78.78,0,0,0-.49-.18.47.47,0,0,1-.26,0,.56.56,0,0,1-.21-.17,5.87,5.87,0,0,1-.08-.72,4,4,0,0,0,0-.5.91.91,0,0,0,.26-.13A1.12,1.12,0,0,1,183.7,35.72Zm8.89,22.66a.89.89,0,0,0-.36,0c-.09,0-.12.14-.12.32v0h0a.26.26,0,0,0,.15,0,.31.31,0,0,0,.11-.09A2.33,2.33,0,0,1,192.59,58.38Zm-8.53-2.69a.78.78,0,0,1,.13-.53c-.25,0-.37.09-.37.26S183.9,55.69,184.06,55.69Zm2.22-18.46,0,0a1.29,1.29,0,0,0-.08.24.69.69,0,0,0,0,.2.51.51,0,0,0,.1-.12.42.42,0,0,0,.08-.21l0,0A.08.08,0,0,1,186.28,37.23Zm.36.7-.09.09-.12.14Zm-.24,1.55a.43.43,0,0,1-.16,0c-.05,0-.08,0-.08.11a.38.38,0,0,1,.15,0C186.37,39.6,186.4,39.57,186.4,39.48Zm-3.19,6.9.21-.31a.51.51,0,0,0,.13-.33.45.45,0,0,0-.07-.18.44.44,0,0,0-.15-.12,1.2,1.2,0,0,0-.16.27.76.76,0,0,0-.11.36.29.29,0,0,0,0,.18A.37.37,0,0,0,183.21,46.38ZM189.86,59h.22c.11,0,.18,0,.18-.06a.28.28,0,0,0,0-.13.2.2,0,0,0-.09-.09.27.27,0,0,0-.19-.08h0l0,0,0,0s0,0,0,0,.09.08.09.1A.28.28,0,0,1,189.86,59Z" transform="translate(-5.79 -4.95)"/><path class="cls-1" d="M209.31,50.28a.45.45,0,0,1-.24.17c-.12,0-.18-.05-.18-.14s.06-.06.18-.06A1,1,0,0,1,209.31,50.28Zm-5.8,9a.14.14,0,0,1-.15.16h-.45c0-.17.1-.26.3-.26a.44.44,0,0,1,.16,0A.29.29,0,0,1,203.51,59.31Zm2-.57,0-.05-.05,0,0,0h-.06a.94.94,0,0,1-.44,0c-.11,0-.16.07-.16.1a.36.36,0,0,0,.1.18.44.44,0,0,1,.08.25c0,.11,0,.16-.11.15h-.22a.93.93,0,0,1-.29-.05.32.32,0,0,1-.17-.22.65.65,0,0,0-.15.18c0,.06-.08.09-.21.09v-.17a.34.34,0,0,0,0-.2.31.31,0,0,1-.05-.12.26.26,0,0,1,.09-.17,1,1,0,0,1-.56.18,1.32,1.32,0,0,0-.52.08.22.22,0,0,1,0-.13.36.36,0,0,1,.08-.28.43.43,0,0,0,.07-.25c0-.27-.06-.4-.18-.4a.33.33,0,0,0-.14,0,.32.32,0,0,1-.17,0,.25.25,0,0,1-.15-.09,3.55,3.55,0,0,0,0-.46v-2.9a.77.77,0,0,1,.22.34.28.28,0,0,0,.11.15.27.27,0,0,0,.19,0,.55.55,0,0,1-.09-.33c0-.07-.09-.14-.31-.21V54.3c0-.15,0-.24-.12-.26V52.57c.09.11.18.22.28.32a.68.68,0,0,1,.12.48.32.32,0,0,0,.18-.12.39.39,0,0,0,.06-.21c0-.09,0-.14-.06-.17l-.13-.07a.71.71,0,0,1-.15-.08s0-.1,0-.21v-.24c0-.11,0-.16-.1-.16a.27.27,0,0,0-.15,0V50.75a1.28,1.28,0,0,1,0-.55,1.38,1.38,0,0,1,.25-.48.43.43,0,0,0-.18-.24.27.27,0,0,1-.1-.11.25.25,0,0,1,0-.15.45.45,0,0,1,0-.16V49c0-.13.09-.2.27-.2a.91.91,0,0,0-.13-.26.87.87,0,0,1-.14-.27,3.87,3.87,0,0,0,0-.48V44.45a.32.32,0,0,0,.18.1s.06,0,.06-.1a1.09,1.09,0,0,0,0-.26c0-.11-.06-.21-.08-.3.09.09.15.13.21.13s.17-.06.2-.19.06-.23.1-.34a.4.4,0,0,1,.14.18,1.51,1.51,0,0,0,.11.22,1.1,1.1,0,0,0,.24-.4,1,1,0,0,0,.07-.46v-.39c0-.11,0-.23-.05-.35-.1.05-.13.16-.11.32s0,.25-.16.25a.52.52,0,0,1-.25,0,.62.62,0,0,1-.21-.15.59.59,0,0,0-.4-.25V41.27c0-.52,0-1,0-1.53s0-1,0-1.53,0-.87,0-1.29.06-.82.12-1.23h1.09a2.47,2.47,0,0,1,.54.05.71.71,0,0,1,.37.22c.08-.2.36-.3.82-.3h.53a6.2,6.2,0,0,1,.62.06l.52.1c.14,0,.22.09.22.16s.05.26.18.26h.07l.06,0s0,0,0-.05a.17.17,0,0,0,0-.07.44.44,0,0,1,.11-.27.27.27,0,0,0,.12.09.28.28,0,0,0,.15,0,.68.68,0,0,0,.31-.08.64.64,0,0,1,.36-.08h.18a1.09,1.09,0,0,0-.12.56A4.54,4.54,0,0,0,209,36a.71.71,0,0,1,.49-.23.15.15,0,0,1,.11,0,.22.22,0,0,1,.07.09.79.79,0,0,1,.08.26,2.43,2.43,0,0,0,0,.3.44.44,0,0,0,.1.22,1.37,1.37,0,0,1,.13-.2.25.25,0,0,1,.12-.08.22.22,0,0,1,.14,0c.22,0,.34.19.34.56V37a.29.29,0,0,0,.33-.3v-.18a.81.81,0,0,1,0-.22c0-.15.05-.23.15-.23a.32.32,0,0,1,.14,0,.2.2,0,0,1,.09.11,1.35,1.35,0,0,1,0,.29v.63a.35.35,0,0,0,.23-.09.81.81,0,0,0,.17-.24,1.24,1.24,0,0,0,.15-.33c.1,0,.18.08.24.25s.11.25.15.25l.06-.1a1,1,0,0,0,.14.43.94.94,0,0,1,.13.46.32.32,0,0,1,0,.17.66.66,0,0,0,.21,0c.24,0,.36-.08.36-.26a.45.45,0,0,0-.07-.18.41.41,0,0,0-.14-.12.36.36,0,0,1,.18-.07c.1,0,.17.08.22.24a3,3,0,0,1,.08.51,3.43,3.43,0,0,0,.08.56.79.79,0,0,0,.06.22.55.55,0,0,0,.14.17s.05-.09.05-.2a.29.29,0,0,0,0-.13v-.14a.49.49,0,0,1,.07-.19.37.37,0,0,1,.15-.13,6.07,6.07,0,0,1,1.3,2.17,8.2,8.2,0,0,1,.49,2.82,7,7,0,0,1-1.92,4.87.19.19,0,0,1-.21-.2.67.67,0,0,1,.07-.24.71.71,0,0,0,.05-.29c0-.14-.06-.2-.18-.2a.24.24,0,0,0-.27.26,0,0,0,0,0,0,0v.09h0l0,0,0,0s0,0,0,0a.94.94,0,0,1,0-.16.37.37,0,0,1,.07.23.65.65,0,0,1-.08.28.67.67,0,0,1-.19.22.79.79,0,0,1-.56.23,2.31,2.31,0,0,0,0,.37.85.85,0,0,1,0,.23,1,1,0,0,1-.19.46.41.41,0,0,1-.07-.11.5.5,0,0,1,0-.12.81.81,0,0,1,0-.22.9.9,0,0,1,.06-.22h-.15a.24.24,0,0,0-.12,0,.2.2,0,0,0-.09.09,1.34,1.34,0,0,0-.09.26,1.43,1.43,0,0,1-.09.27.2.2,0,0,1-.09.09.28.28,0,0,1-.13,0l-.21-.07a.31.31,0,0,0,.15-.1.23.23,0,0,0,.06-.16c0-.11-.09-.17-.26-.17a.4.4,0,0,0-.19,0,.91.91,0,0,0-.16.11,1.4,1.4,0,0,0-.13.34c0,.13-.06.26-.09.41a.85.85,0,0,1-.14.34c-.22,0-.33,0-.33-.13a1.55,1.55,0,0,1,0-.21,1.13,1.13,0,0,0,0-.32.94.94,0,0,1-.47.2c-.17,0-.25.16-.25.4v.06h-.5c-.12,0-.21-.08-.26-.23l-.22.06a.42.42,0,0,1-.15,0c-.08,0-.16-.08-.24-.23a.21.21,0,0,0-.24.23.5.5,0,0,0,0,.21.61.61,0,0,1,0,.19s0,.07-.08.08H208l-.06,0,0-.06a.14.14,0,0,1,0-.07.21.21,0,0,0-.07-.12.18.18,0,0,0-.12-.05h-.09v-.39c-.16,0-.25.1-.26.15a.07.07,0,0,1,0,.06.08.08,0,0,1-.07,0,1.17,1.17,0,0,1-.24-.09.24.24,0,0,0,0,.12c0,.14.08.2.23.19s.25,0,.29.11a.82.82,0,0,1-.57.24.28.28,0,0,1-.19-.07.34.34,0,0,1-.11-.17.56.56,0,0,1-.24.24.51.51,0,0,1-.32.06.2.2,0,0,1-.11,0h-.11v8.89h-.73a1.72,1.72,0,0,0,.08-.38.33.33,0,0,1,0-.14.41.41,0,0,1,.07-.11.23.23,0,0,1,.11-.08.28.28,0,0,1,.13,0Zm-3-1.89a1.82,1.82,0,0,1,0-.33c0-.11,0-.17-.1-.2a.27.27,0,0,0-.09.12.23.23,0,0,0,0,.14c0,.21.07.3.23.3Zm.49-2.54c-.23,0-.33-.06-.33-.17s.06-.16.21-.27h-.06a.26.26,0,0,1-.15,0,.35.35,0,0,1-.11-.1.27.27,0,0,0-.07-.08.29.29,0,0,0-.1,0s-.09,0-.15.1a.87.87,0,0,0,.18.36,1.46,1.46,0,0,1,.22.33v-.06s0-.06,0-.06.05,0,.1.07.09.09.13.09.1,0,.1-.14Zm5.77-14.57a5.46,5.46,0,0,1-1.45.2,10.78,10.78,0,0,0-1.41.06v6.25a1,1,0,0,0,.57.14h.33a.28.28,0,0,1,.2,0,.13.13,0,0,1,0,.1v.08a.15.15,0,0,0,.1,0c0-.12.07-.17.15-.17s.12,0,.18.13a.5.5,0,0,0,.15.17.47.47,0,0,1,0-.17c0-.15.11-.22.31-.22h.33c.12,0,.18,0,.18.15a.34.34,0,0,1-.07.22l-.06.07a.19.19,0,0,0,0,.08.94.94,0,0,0,.27,0s.06,0,.06,0a.33.33,0,0,0-.06-.19.55.55,0,0,1-.06-.18s0-.09.13-.12a.54.54,0,0,1,.21-.08c.12,0,.17.07.17.2a.18.18,0,0,0,0,.16.2.2,0,0,0,.11.11v-.14a.39.39,0,0,1,0-.15.57.57,0,0,1,.08-.13.85.85,0,0,1,.25-.13.75.75,0,0,1,.26,0h.11a.55.55,0,0,1,.28.07v-.17l0-.06.06,0,.06,0a.33.33,0,0,0,.14,0,.32.32,0,0,0,.1-.1.48.48,0,0,1,0,.18,0,0,0,0,0,0,0l0,0,0,0h0a.89.89,0,0,1,.32-.52,2.27,2.27,0,0,0,.41-.41.84.84,0,0,1,.05.17c0,.07,0,.1.07.1a4.66,4.66,0,0,0,.16-1,4.59,4.59,0,0,1,.24-1.17,3.56,3.56,0,0,0-.17-.92,3.5,3.5,0,0,0-.32-.71c-.12-.22-.25-.44-.39-.65a3.44,3.44,0,0,1-.37-.68,2,2,0,0,1-1-.21A3.2,3.2,0,0,0,208.8,39.74Zm-5.64,4.48c0-.07,0-.11-.06-.11s-.06,0-.06.11,0,.06.06.06ZM205.74,59l.07-.14a.15.15,0,0,0,.05-.13c0-.07,0-.11-.12-.13a.23.23,0,0,1,0,.14.44.44,0,0,0-.06.16s0,.08.09.1ZM210.08,36l-.09-.1s0,0,.09.08a1.29,1.29,0,0,1,.09.15,0,0,0,0,1,0,0,.39.39,0,0,1-.08-.1Z" transform="translate(-5.79 -4.95)"/><path class="cls-2" d="M148.63,27.47a10,10,0,0,0-2.67.36L141.79,8.16h8.91a2.36,2.36,0,0,1,2.1,2.41c.1,1.57-.82,2.89-2,2.89h-3.2s-1,.71-1,1.49,1,1.69,1,1.69h3c1.87,0,3.58-1.54,4.14-3.94,1-4-1.25-7.75-4.11-7.75H140.31a1,1,0,0,0-.82.56,1.78,1.78,0,0,0-.16,1.2l2.55,12.05H119.22l-1.39-4.25h2a2.4,2.4,0,0,0,1.39-.58,2.29,2.29,0,0,0,.76-1.29c.5-1.69-.19-3.49-1.38-4L113.69,5.5c-1.19-.53-2.47.34-2.86,1.93a3.7,3.7,0,0,0-.11.87v3.13c0,1.69,1,3.05,2.19,3.09h2.32L117,19.75l-4.29,9.58c-7.62-3.18-15.75,3.17-17.31,14-1.18,8.25,2.13,16.7,7.85,20,7.54,4.41,16-1,18.39-11.28a22.41,22.41,0,0,0,.45-2.6h6.06a1,1,0,0,0,.49-.16A1,1,0,0,0,129,49L142.7,22.54,144,28.62c-7.33,3.72-10.83,15.26-7.17,25,2.78,7.38,9.15,11.28,15.11,9.23,7.84-2.69,12-13.81,9.24-23.72C159.2,32.08,154.2,27.44,148.63,27.47ZM113.08,11.91V8.77a.33.33,0,0,1,.08-.19s.07,0,.1.64h0l7,2.49a.28.28,0,0,1,.09.1.31.31,0,0,1,0,.13,1.6,1.6,0,0,1-.17.46h-7a1.6,1.6,0,0,1-.17-.46,0,0,0,0,0,0,0Zm-4.17,51.37c-6.37,0-11.52-6.93-11.52-15.49s5.15-15.49,11.52-15.49a8.91,8.91,0,0,1,2.93.56l-7,15.65a1.7,1.7,0,0,0-.12,1,1.77,1.77,0,0,0,.49.91.86.86,0,0,0,.53.19h14.46C119.21,58,114.45,63.28,108.91,63.28Zm4.93-29.82c4,2.56,6.57,8,6.58,14h-12.8Zm1.22-2,3.33-7.33L126,47.42h-3.54c0-6.76-2.87-12.93-7.38-15.92ZM128,45.9,120.13,22h20.26Zm20.73,15.53c-6.37,0-11.53-6.93-11.53-15.48,0-6.39,2.91-12.13,7.33-14.45l3.14,14.81c.13.64.56,1.06,1,1H149a1.49,1.49,0,0,0,.78-1.7v-.1L146.6,30.73a8.72,8.72,0,0,1,2.1-.29c6.35,0,11.51,6.94,11.51,15.5S155,61.43,148.69,61.43Z" transform="translate(-5.79 -4.95)"/><path class="cls-1" d="M20.93,73.49H17.65V77h-1V69.13h4.85V70H17.65v2.68h3.28ZM27.66,77h-1V69.13h1Zm11.75,0h-1l-3.94-6v6h-1V69.13h1l4,6.05V69.13h1Zm5.68,0V69.13H47.3a3.54,3.54,0,0,1,1.8.45,3.05,3.05,0,0,1,1.21,1.28,4.2,4.2,0,0,1,.44,1.91v.5a4.24,4.24,0,0,1-.43,1.94,3,3,0,0,1-1.22,1.28,3.78,3.78,0,0,1-1.85.46Zm1-7V76.1h1.09a2.33,2.33,0,0,0,1.85-.74,3.07,3.07,0,0,0,.66-2.11v-.46a3.07,3.07,0,0,0-.62-2.06A2.23,2.23,0,0,0,47.32,70Zm19,3.08,2-3.92h1.17L65.64,74V77h-1V74l-2.7-4.9h1.18Zm13.93.24a4.87,4.87,0,0,1-.39,2,2.93,2.93,0,0,1-1.09,1.3,3,3,0,0,1-4.41-1.29,4.74,4.74,0,0,1-.4-2v-.57a4.81,4.81,0,0,1,.39-2A2.91,2.91,0,0,1,75.9,69a2.92,2.92,0,0,1,1.65.46,2.88,2.88,0,0,1,1.11,1.31,4.79,4.79,0,0,1,.39,2Zm-1-.51a3.46,3.46,0,0,0-.56-2.13,2,2,0,0,0-3.1,0,3.45,3.45,0,0,0-.58,2.06v.58a3.51,3.51,0,0,0,.57,2.12,1.84,1.84,0,0,0,1.56.77,1.82,1.82,0,0,0,1.55-.73A3.52,3.52,0,0,0,78,73.36ZM90,69.13v5.31a2.48,2.48,0,0,1-.7,1.81,2.76,2.76,0,0,1-1.87.79h-.27a2.94,2.94,0,0,1-2-.69,2.48,2.48,0,0,1-.77-1.91V69.13h1v5.29a1.63,1.63,0,0,0,1.8,1.79,1.82,1.82,0,0,0,1.34-.47,1.77,1.77,0,0,0,.46-1.31v-5.3Zm8.35,4.65H96.46V77h-1V69.13H98a3.05,3.05,0,0,1,2,.6,2.14,2.14,0,0,1,.72,1.75,2.11,2.11,0,0,1-.4,1.27,2.36,2.36,0,0,1-1.1.81l1.84,3.32V77H100Zm-1.84-.84H98a1.74,1.74,0,0,0,1.22-.4,1.32,1.32,0,0,0,.46-1.06,1.4,1.4,0,0,0-.44-1.11A1.82,1.82,0,0,0,98,70H96.46Zm20.49,2h-3.27l-.74,2h-1.06l3-7.82h.91l3,7.82H117.7Zm-3-.85h2.66l-1.34-3.66ZM136.25,77h-1l-3.94-6v6h-1V69.13h1l3.95,6.05V69.13h1Zm10.1-3.62H143V76.1h3.94V77h-5V69.13h4.91V70H143v2.52h3.39Zm7.37,1.15.15,1,.22-.93,1.55-5.45h.87L158,74.58l.21,1,.17-1,1.21-5.35h1L158.75,77h-.94l-1.61-5.7-.12-.6-.13.6L154.28,77h-.94l-1.89-7.82h1ZM172.23,77V69.13h2.55a2.94,2.94,0,0,1,1.91.52,1.9,1.9,0,0,1,.65,1.56,1.63,1.63,0,0,1-.31,1,2,2,0,0,1-.85.65,1.86,1.86,0,0,1,1,.68,2,2,0,0,1,.37,1.18,2.1,2.1,0,0,1-.68,1.65,2.79,2.79,0,0,1-1.93.61Zm1-3.66V76.1H175a1.6,1.6,0,0,0,1.13-.37,1.31,1.31,0,0,0,.42-1q0-1.41-1.53-1.41Zm0-.83h1.55a1.57,1.57,0,0,0,1.08-.34,1.29,1.29,0,0,0,0-1.85,1.84,1.84,0,0,0-1.15-.3h-1.52ZM184,77h-1V69.13h1Zm7.72-3.64-.95,1V77h-1V69.13h1V73l3.47-3.86h1.25l-3.08,3.45L195.77,77h-1.24Zm13.18,0h-3.39V76.1h3.94V77h-5V69.13h4.92V70h-3.89v2.52h3.39Z" transform="translate(-5.79 -4.95)"/></svg>