<svg width="20" height="20" viewBox="0 0 20 20" fill="black" xmlns="http://www.w3.org/2000/svg">
    <path d="M0 10C0 4.47779 4.47779 0 10 0C15.5222 0 20 4.47779 20 10C20 15.5229 15.5225 20 10 20C4.47745 20 0 15.5229 0 10ZM1.5 10C1.5 14.6944 5.30586 18.5 10 18.5C14.6941 18.5 18.5 14.6944 18.5 10C18.5 5.30621 14.6938 1.5 10 1.5C5.30621 1.5 1.5 5.30621 1.5 10ZM7.95379 6.08429L8.02623 6.00002C8.29192 5.73318 8.70853 5.70807 9.00261 5.92529L9.08689 5.99773L12.5729 9.46873C12.8405 9.73523 12.8649 10.1534 12.6459 10.4474L12.5729 10.5317L9.08689 14.0027C8.79336 14.2949 8.31849 14.2939 8.02623 14.0004C7.76054 13.7335 7.73723 13.3168 7.95572 13.0237L8.02851 12.9397L10.98 10.0012L8.02851 7.06067C7.76167 6.79498 7.73657 6.37837 7.95379 6.08429Z" fill="black"/>
</svg>