<svg width="20" height="20" viewBox="0 0 20 20" fill="black" xmlns="http://www.w3.org/2000/svg">
    <path d="M20 10C20 15.5222 15.5222 20 10 20C4.47779 20 0 15.5222 0 10C0 4.47712 4.47745 0 10 0C15.5225 0 20 4.47712 20 10ZM18.5 10C18.5 5.30557 14.6941 1.5 10 1.5C5.30586 1.5 1.5 5.30557 1.5 10C1.5 14.6938 5.30621 18.5 10 18.5C14.6938 18.5 18.5 14.6938 18.5 10ZM12.0462 13.9157L11.9738 14C11.7081 14.2668 11.2915 14.2919 10.9974 14.0747L10.9131 14.0023L7.42711 10.5313C7.15946 10.2648 7.13513 9.84662 7.35412 9.55255L7.42711 9.46833L10.9131 5.99733C11.2066 5.70507 11.6815 5.70609 11.9738 5.99961C12.2395 6.26645 12.2628 6.68317 12.0443 6.97631L11.9715 7.06027L9.02 9.9988L11.9715 12.9393C12.2383 13.205 12.2634 13.6216 12.0462 13.9157Z" fill="black"/>
</svg>
